<?xml version="1.0" standalone="no"?>
<!DOCTYPE svg PUBLIC "-//W3C//DTD SVG 20010904//EN"
 "http://www.w3.org/TR/2001/REC-SVG-20010904/DTD/svg10.dtd">
<svg version="1.0" xmlns="http://www.w3.org/2000/svg"
 width="256.000000pt" height="256.000000pt" viewBox="0 0 256.000000 256.000000"
 preserveAspectRatio="xMidYMid meet">
<metadata>
Created by potrace 1.16, written by Peter Selinger 2001-2019
</metadata>
<g transform="translate(0.000000,256.000000) scale(0.100000,-0.100000)"
fill="#000000" stroke="none">
<path d="M1250 2244 c0 -48 -2 -55 -14 -45 -8 7 -32 11 -53 9 -31 -2 -39 -7
-41 -25 -5 -32 -22 -29 -93 17 -57 37 -79 47 -79 36 0 -2 9 -25 20 -51 25 -58
25 -60 -2 -41 -33 24 -78 21 -78 -4 0 -26 -3 -26 -52 10 -26 19 -53 30 -75 30
-40 0 -43 -17 -8 -58 31 -37 31 -42 2 -42 -18 0 -23 5 -23 23 1 17 -5 23 -28
25 -39 5 -45 -4 -52 -76 -6 -55 -10 -63 -31 -68 -19 -5 -31 1 -57 30 -34 36
-76 48 -76 22 0 -8 11 -36 25 -63 l26 -47 -28 -14 c-15 -8 -36 -22 -46 -31
-14 -12 -35 -15 -84 -12 -66 3 -123 -12 -123 -33 0 -8 19 -12 52 -11 41 0 53
-4 53 -15 0 -11 -10 -14 -37 -12 -48 4 -52 -20 -9 -46 28 -17 29 -19 10 -30
-10 -7 -39 -12 -64 -12 -40 0 -45 -2 -45 -23 0 -18 -9 -26 -42 -38 -23 -9 -44
-21 -46 -27 -2 -7 21 -23 54 -38 l57 -25 -33 -28 c-27 -22 -32 -32 -28 -55 5
-22 -1 -32 -32 -57 -39 -32 -79 -93 -68 -105 4 -3 21 -1 38 5 30 10 31 9 24
-12 -4 -12 -8 -38 -9 -57 -2 -32 -7 -36 -64 -62 -55 -24 -82 -50 -69 -64 3 -2
26 5 52 16 26 11 57 20 69 20 19 0 19 -2 -7 -29 -33 -34 -30 -63 5 -54 20 5
21 3 15 -18 -18 -59 -19 -69 -2 -69 20 0 20 -3 1 -64 -25 -82 -15 -108 26 -70
17 15 19 15 34 0 9 -9 23 -16 31 -16 20 0 18 -5 -21 -76 -34 -60 -46 -114 -25
-114 5 0 24 14 42 32 l33 32 3 -29 c11 -137 14 -155 27 -155 20 0 35 32 35 72
0 19 6 43 14 53 13 18 15 16 21 -29 4 -27 14 -50 22 -53 10 -4 12 -14 8 -31
-5 -19 -3 -23 9 -18 9 3 22 9 30 12 11 4 12 -4 3 -46 -16 -81 13 -88 99 -25
21 15 21 15 16 -33 -4 -50 18 -122 37 -122 6 0 11 22 11 49 0 50 13 74 24 46
3 -8 17 -20 31 -27 l25 -11 -21 -34 c-12 -19 -19 -36 -17 -39 11 -10 39 10 59
42 24 39 34 42 51 15 9 -15 19 -18 40 -14 25 5 29 2 34 -26 6 -30 8 -31 48
-25 22 4 55 12 72 19 l32 13 17 -44 c13 -36 21 -44 41 -44 14 0 23 4 20 8 -2
4 -1 14 3 21 6 9 18 10 55 0 54 -13 182 -7 199 10 16 16 37 14 58 -5 16 -15
22 -15 66 0 26 8 78 18 114 22 62 6 68 5 78 -15 12 -22 45 -29 56 -11 3 5 1
19 -5 30 -14 26 2 33 180 71 74 16 147 33 161 38 23 8 31 5 60 -25 46 -48 63
-45 56 9 -2 23 -8 49 -11 57 -5 11 3 20 26 29 18 8 36 16 39 18 3 2 11 -8 17
-22 10 -21 16 -24 30 -16 12 6 25 5 42 -5 14 -7 28 -13 33 -14 12 0 8 35 -8
73 -21 51 -19 74 8 83 29 9 37 22 37 61 0 19 7 36 16 41 9 5 26 38 38 73 21
62 23 64 56 64 40 0 53 27 22 44 -30 16 -18 63 21 81 36 17 39 30 10 45 -11 6
-18 16 -16 22 3 7 -5 25 -16 39 -29 37 -27 48 19 78 29 19 40 33 40 51 0 22
-3 25 -25 19 -19 -5 -32 2 -60 29 -27 27 -33 37 -23 44 16 10 58 69 58 82 0 5
-12 14 -27 19 -27 9 -27 9 15 16 58 10 53 26 -8 26 -48 0 -66 12 -35 24 30 11
15 28 -22 24 -32 -3 -38 0 -41 18 -2 15 10 33 39 58 24 20 46 36 51 36 4 0 8
7 8 15 0 21 -33 19 -80 -5 -22 -11 -47 -20 -56 -20 -16 0 -16 1 1 20 24 27 14
49 -21 42 l-27 -5 35 64 c37 65 62 138 52 148 -7 7 -64 -59 -64 -74 0 -21 -48
-58 -66 -51 -16 6 -16 8 0 25 21 23 18 66 -5 65 -9 -1 -15 7 -15 20 1 14 -6
22 -21 24 -19 3 -23 10 -23 38 0 19 -7 48 -15 65 -14 27 -19 29 -50 23 -19 -3
-50 -3 -69 0 -33 6 -34 8 -29 41 5 32 3 35 -18 35 -13 -1 -51 -7 -84 -15 -84
-20 -86 -20 -75 11 21 55 4 71 -36 33 -21 -20 -23 -20 -32 -2 -6 10 -13 35
-17 56 -6 33 -11 37 -36 37 -22 0 -29 5 -29 20 0 25 -20 26 -27 1 -10 -39
-101 -8 -103 36 0 20 -69 3 -96 -23 -33 -34 -66 -31 -123 12 -1 2 4 13 13 26
9 12 16 26 16 30 0 17 -31 6 -55 -19 -24 -27 -25 -27 -25 -6 0 35 -11 53 -31
53 -16 0 -19 -8 -19 -56z m528 -710 c91 -38 131 -109 132 -233 0 -67 -4 -90
-21 -117 -32 -52 -104 -110 -152 -122 -114 -29 -270 65 -297 179 -32 131 29
250 148 294 51 19 145 18 190 -1z m-655 -36 c53 -11 81 -40 116 -118 25 -56
28 -170 6 -224 -38 -90 -133 -156 -225 -156 -91 0 -199 61 -236 133 -33 63
-13 164 56 284 56 97 122 116 283 81z"/>
<path d="M1543 1380 c-59 -36 -40 -111 37 -150 50 -25 71 -25 104 1 22 17 26
29 26 68 0 39 -5 53 -26 75 -33 33 -94 35 -141 6z"/>
<path d="M1074 1350 c-57 -23 -72 -107 -28 -159 45 -54 121 -36 144 34 29 87
-37 157 -116 125z"/>
</g>
</svg>
